<svg width="137" height="171" xmlns="http://www.w3.org/2000/svg" xmlns:xlink="http://www.w3.org/1999/xlink" xml:space="preserve" overflow="hidden"><defs><clipPath id="clip0"><rect x="200" y="282" width="137" height="171"/></clipPath><clipPath id="clip1"><rect x="201" y="283" width="136" height="170"/></clipPath><clipPath id="clip2"><rect x="201" y="283" width="136" height="170"/></clipPath><clipPath id="clip3"><rect x="201" y="283" width="136" height="170"/></clipPath></defs><g clip-path="url(#clip0)" transform="translate(-200 -282)"><g clip-path="url(#clip1)"><g clip-path="url(#clip2)"><g clip-path="url(#clip3)"><path d="M67.239 3.64676C72.3324 1.88366 80.515 0 86.2112 0 113.713 0 136 22.2874 136 49.7888 136 59.4482 133.242 68.4596 128.48 76.0847 119.695 61.9949 104.053 52.6218 86.2112 52.6218 80.515 52.6218 72.3324 54.5055 67.239 56.2686L67.239 56.2686 0 78.8725 0 26.2657 67.239 3.64676Z" fill="#13CF36" fill-rule="nonzero" fill-opacity="1" transform="matrix(1 0 0 1.00446 201 283.213)"/><path d="M100.09 150.21C120.825 144.213 136 125.075 136 102.396 136 92.7362 133.242 83.7248 128.48 76.0847 122.061 86.377 111.995 94.1527 100.09 97.6035L100.09 97.6035 51.6574 113.908C47.5586 115.4 43.1433 116.214 38.5321 116.214 17.6461 116.214 0.617839 99.5927 0 78.8725L0 130.304C0 151.582 17.2392 168.821 38.517 168.821 43.1282 168.821 47.5284 167.917 51.6423 166.515L100.09 150.21Z" fill="#0389E5" fill-rule="nonzero" fill-opacity="1" transform="matrix(1 0 0 1.00446 201 283.213)"/><path d="M100.075 97.6035C111.98 94.1527 122.046 86.377 128.465 76.0847 119.68 61.9949 104.038 52.6218 86.1961 52.6218 80.4999 52.6218 72.3173 54.5055 67.2239 56.2686L0 78.8725C0.617839 99.5927 17.6461 116.214 38.517 116.214 43.1282 116.214 47.5435 115.4 51.6423 113.908L100.075 97.6035Z" fill="#284EDB" fill-rule="nonzero" fill-opacity="1" transform="matrix(1 0 0 1.00446 201 283.213)"/></g></g></g></g></svg>